G04 #@! TF.FileFunction,Copper,L1,Top,Signal*
%FSLAX46Y46*%
G04 Gerber Fmt 4.6, Leading zero omitted, Abs format (unit mm)*
G04 Created by KiCad (PCBNEW 4.0.0-stable) date 12/14/2015 9:14:30 PM*
%MOMM*%
G01*
G04 APERTURE LIST*
%ADD10C,0.100000*%
%ADD11R,1.060000X0.650000*%
%ADD12R,1.300000X1.500000*%
%ADD13R,1.500000X1.250000*%
%ADD14R,1.500000X1.300000*%
%ADD15R,0.635000X1.270000*%
%ADD16R,2.670000X2.540000*%
%ADD17C,0.600000*%
%ADD18C,0.609600*%
%ADD19C,0.635000*%
%ADD20C,0.762000*%
%ADD21C,0.508000*%
%ADD22C,0.711200*%
%ADD23C,0.250000*%
%ADD24C,0.254000*%
G04 APERTURE END LIST*
D10*
D11*
X163873000Y-101539000D03*
X163873000Y-102489000D03*
X163873000Y-103439000D03*
X166073000Y-103439000D03*
X166073000Y-101539000D03*
X166073000Y-102489000D03*
D12*
X169672000Y-101567000D03*
X169672000Y-104267000D03*
D13*
X157480000Y-101727000D03*
X159980000Y-101727000D03*
X157480000Y-104394000D03*
X159980000Y-104394000D03*
D14*
X169037000Y-98425000D03*
X171737000Y-98425000D03*
D15*
X162241000Y-98679000D03*
D16*
X164592000Y-98679000D03*
D13*
X174538000Y-104394000D03*
X177038000Y-104394000D03*
D12*
X171958000Y-102044500D03*
X171958000Y-104744500D03*
D17*
X162750500Y-102489000D03*
X160528000Y-108712000D03*
X157734000Y-108712000D03*
X157734000Y-106934000D03*
X160528000Y-106934000D03*
X175768000Y-108712000D03*
X178562000Y-108712000D03*
X178562000Y-107188000D03*
X175768000Y-107188000D03*
X172918999Y-100399999D03*
X161885000Y-102489000D03*
X167236405Y-103566990D03*
X168402000Y-100711000D03*
D18*
X162750500Y-102489000D02*
X163873000Y-102489000D01*
X161885000Y-102489000D02*
X162750500Y-102489000D01*
X157734000Y-106934000D02*
X157734000Y-108712000D01*
X159980000Y-104394000D02*
X159980000Y-106386000D01*
X159980000Y-106386000D02*
X160528000Y-106934000D01*
X178562000Y-107188000D02*
X178562000Y-108712000D01*
X177038000Y-104394000D02*
X177038000Y-105918000D01*
X177038000Y-105918000D02*
X175768000Y-107188000D01*
X169672000Y-101567000D02*
X169766000Y-101567000D01*
X169766000Y-101567000D02*
X170933001Y-100399999D01*
X170933001Y-100399999D02*
X172918999Y-100399999D01*
X172918999Y-100399999D02*
X176913000Y-104394000D01*
X176913000Y-104394000D02*
X177038000Y-104394000D01*
X159980000Y-104394000D02*
X161885000Y-102489000D01*
D19*
X154940000Y-105684000D02*
X154940000Y-106934000D01*
X157480000Y-104394000D02*
X156230000Y-104394000D01*
X156230000Y-104394000D02*
X154940000Y-105684000D01*
X157480000Y-101727000D02*
X157480000Y-104394000D01*
X166073000Y-101539000D02*
X166073000Y-101389000D01*
X166073000Y-101389000D02*
X169037000Y-98425000D01*
X157480000Y-101727000D02*
X157480000Y-100602000D01*
X157480000Y-100602000D02*
X161123001Y-96704999D01*
X161123001Y-96704999D02*
X167527499Y-96704999D01*
X167527499Y-96704999D02*
X168993500Y-98425000D01*
X168993500Y-98425000D02*
X169037000Y-98425000D01*
D20*
X171958000Y-102044500D02*
X171767500Y-102044500D01*
X171767500Y-102044500D02*
X170878500Y-102933500D01*
X167894000Y-102489000D02*
X166073000Y-102489000D01*
X168338500Y-102933500D02*
X167894000Y-102489000D01*
X170878500Y-102933500D02*
X168338500Y-102933500D01*
X172847000Y-106426000D02*
X172847000Y-107061000D01*
X173418500Y-105918000D02*
X172847000Y-106426000D01*
X173956500Y-105918000D02*
X173418500Y-105918000D01*
X174538000Y-104394000D02*
X174538000Y-105527000D01*
X174538000Y-105527000D02*
X173956500Y-105918000D01*
D21*
X171958000Y-102044500D02*
X172188500Y-102044500D01*
D20*
X172188500Y-102044500D02*
X174538000Y-104394000D01*
D19*
X164592000Y-98679000D02*
X164592000Y-100449000D01*
X164592000Y-100449000D02*
X164965999Y-101076999D01*
X164965999Y-101076999D02*
X164965999Y-102351001D01*
X164965999Y-102351001D02*
X165357998Y-102489000D01*
X165357998Y-102489000D02*
X166073000Y-102489000D01*
D20*
X163873000Y-101539000D02*
X163134000Y-101539000D01*
X162241000Y-100646000D02*
X162241000Y-98679000D01*
X163134000Y-101539000D02*
X162241000Y-100646000D01*
D22*
X163873000Y-101539000D02*
X160168000Y-101539000D01*
D20*
X160168000Y-101539000D02*
X159980000Y-101727000D01*
X168387000Y-104394000D02*
X168514000Y-104267000D01*
X168514000Y-104267000D02*
X169672000Y-104267000D01*
D18*
X164655500Y-104394000D02*
X168387000Y-104394000D01*
X163873000Y-103439000D02*
X164400798Y-103439000D01*
X164400798Y-103439000D02*
X164655500Y-104394000D01*
D20*
X169672000Y-104267000D02*
X171480500Y-104267000D01*
X171480500Y-104267000D02*
X171958000Y-104744500D01*
D21*
X167236405Y-103566990D02*
X166200990Y-103566990D01*
X166200990Y-103566990D02*
X166073000Y-103439000D01*
D23*
X171483000Y-98425000D02*
X171383000Y-98425000D01*
X171383000Y-98425000D02*
X169633501Y-100174499D01*
X169633501Y-100174499D02*
X168938501Y-100174499D01*
X168938501Y-100174499D02*
X168402000Y-100711000D01*
D24*
G36*
X163134000Y-102247001D02*
X163134005Y-102247000D01*
X163873000Y-102247000D01*
X163933328Y-102235000D01*
X164321499Y-102235000D01*
X164321499Y-102351001D01*
X164324956Y-102368381D01*
X164322446Y-102385921D01*
X164338000Y-102446694D01*
X164338000Y-102743000D01*
X162560000Y-102743000D01*
X162510590Y-102753006D01*
X162470197Y-102780197D01*
X161454197Y-103796197D01*
X161426334Y-103838211D01*
X161417000Y-103886000D01*
X161417000Y-109347000D01*
X156591000Y-109347000D01*
X156591000Y-106553000D01*
X159067500Y-106553000D01*
X159116910Y-106542994D01*
X159158535Y-106514553D01*
X159185815Y-106472159D01*
X159194500Y-106426000D01*
X159194500Y-103822500D01*
X160020000Y-103822500D01*
X160069410Y-103812494D01*
X160108025Y-103787046D01*
X161722153Y-102235000D01*
X163073668Y-102235000D01*
X163134000Y-102247001D01*
X163134000Y-102247001D01*
G37*
X163134000Y-102247001D02*
X163134005Y-102247000D01*
X163873000Y-102247000D01*
X163933328Y-102235000D01*
X164321499Y-102235000D01*
X164321499Y-102351001D01*
X164324956Y-102368381D01*
X164322446Y-102385921D01*
X164338000Y-102446694D01*
X164338000Y-102743000D01*
X162560000Y-102743000D01*
X162510590Y-102753006D01*
X162470197Y-102780197D01*
X161454197Y-103796197D01*
X161426334Y-103838211D01*
X161417000Y-103886000D01*
X161417000Y-109347000D01*
X156591000Y-109347000D01*
X156591000Y-106553000D01*
X159067500Y-106553000D01*
X159116910Y-106542994D01*
X159158535Y-106514553D01*
X159185815Y-106472159D01*
X159194500Y-106426000D01*
X159194500Y-103822500D01*
X160020000Y-103822500D01*
X160069410Y-103812494D01*
X160108025Y-103787046D01*
X161722153Y-102235000D01*
X163073668Y-102235000D01*
X163134000Y-102247001D01*
G36*
X155321000Y-109290000D02*
X150710000Y-109290000D01*
X150710000Y-106553000D01*
X155321000Y-106553000D01*
X155321000Y-109290000D01*
X155321000Y-109290000D01*
G37*
X155321000Y-109290000D02*
X150710000Y-109290000D01*
X150710000Y-106553000D01*
X155321000Y-106553000D01*
X155321000Y-109290000D01*
G36*
X173355000Y-109290000D02*
X168710000Y-109290000D01*
X168710000Y-106553000D01*
X173355000Y-106553000D01*
X173355000Y-109290000D01*
X173355000Y-109290000D01*
G37*
X173355000Y-109290000D02*
X168710000Y-109290000D01*
X168710000Y-106553000D01*
X173355000Y-106553000D01*
X173355000Y-109290000D01*
G36*
X179290000Y-109290000D02*
X174625000Y-109290000D01*
X174625000Y-106647258D01*
X174766067Y-106553000D01*
X179290000Y-106553000D01*
X179290000Y-109290000D01*
X179290000Y-109290000D01*
G37*
X179290000Y-109290000D02*
X174625000Y-109290000D01*
X174625000Y-106647258D01*
X174766067Y-106553000D01*
X179290000Y-106553000D01*
X179290000Y-109290000D01*
G36*
X162560000Y-100139500D02*
X162570006Y-100188910D01*
X162598447Y-100230535D01*
X162622255Y-100248757D01*
X164274500Y-101227865D01*
X164274500Y-101790500D01*
X161163000Y-101790500D01*
X161113590Y-101800506D01*
X161061400Y-101841300D01*
X160718500Y-102298500D01*
X159258000Y-102298500D01*
X159258000Y-100319106D01*
X161596606Y-97980500D01*
X162560000Y-97980500D01*
X162560000Y-100139500D01*
X162560000Y-100139500D01*
G37*
X162560000Y-100139500D02*
X162570006Y-100188910D01*
X162598447Y-100230535D01*
X162622255Y-100248757D01*
X164274500Y-101227865D01*
X164274500Y-101790500D01*
X161163000Y-101790500D01*
X161113590Y-101800506D01*
X161061400Y-101841300D01*
X160718500Y-102298500D01*
X159258000Y-102298500D01*
X159258000Y-100319106D01*
X161596606Y-97980500D01*
X162560000Y-97980500D01*
X162560000Y-100139500D01*
G36*
X165925500Y-99972191D02*
X165220177Y-100971399D01*
X164695556Y-101023861D01*
X164647473Y-100984140D01*
X164644327Y-100979251D01*
X164628290Y-100968293D01*
X163322000Y-99889184D01*
X163322000Y-97536000D01*
X165925500Y-97536000D01*
X165925500Y-99972191D01*
X165925500Y-99972191D01*
G37*
X165925500Y-99972191D02*
X165220177Y-100971399D01*
X164695556Y-101023861D01*
X164647473Y-100984140D01*
X164644327Y-100979251D01*
X164628290Y-100968293D01*
X163322000Y-99889184D01*
X163322000Y-97536000D01*
X165925500Y-97536000D01*
X165925500Y-99972191D01*
G36*
X169735500Y-99096711D02*
X168360278Y-99575049D01*
X168313908Y-99603519D01*
X166599408Y-101254519D01*
X166570757Y-101296000D01*
X166560500Y-101346000D01*
X166560500Y-101727000D01*
X165671500Y-101727000D01*
X165671500Y-101261333D01*
X168275000Y-97790000D01*
X169735500Y-97790000D01*
X169735500Y-99096711D01*
X169735500Y-99096711D01*
G37*
X169735500Y-99096711D02*
X168360278Y-99575049D01*
X168313908Y-99603519D01*
X166599408Y-101254519D01*
X166570757Y-101296000D01*
X166560500Y-101346000D01*
X166560500Y-101727000D01*
X165671500Y-101727000D01*
X165671500Y-101261333D01*
X168275000Y-97790000D01*
X169735500Y-97790000D01*
X169735500Y-99096711D01*
M02*
