G04 #@! TF.FileFunction,Copper,L2,Bot,Signal*
%FSLAX46Y46*%
G04 Gerber Fmt 4.6, Leading zero omitted, Abs format (unit mm)*
G04 Created by KiCad (PCBNEW 4.0.0-stable) date 12/14/2015 9:14:30 PM*
%MOMM*%
G01*
G04 APERTURE LIST*
%ADD10C,0.100000*%
%ADD11C,0.600000*%
%ADD12C,0.508000*%
%ADD13C,0.609600*%
%ADD14C,0.250000*%
%ADD15C,0.254000*%
G04 APERTURE END LIST*
D10*
D11*
X162750500Y-102489000D03*
X160528000Y-108712000D03*
X157734000Y-108712000D03*
X157734000Y-106934000D03*
X160528000Y-106934000D03*
X175768000Y-108712000D03*
X178562000Y-108712000D03*
X178562000Y-107188000D03*
X175768000Y-107188000D03*
X172918999Y-100399999D03*
X161885000Y-102489000D03*
X167236405Y-103566990D03*
X168402000Y-100711000D03*
D12*
X162814000Y-99695000D02*
X172214000Y-99695000D01*
X172214000Y-99695000D02*
X172918999Y-100399999D01*
X161885000Y-100624000D02*
X162814000Y-99695000D01*
X161885000Y-102489000D02*
X161885000Y-100624000D01*
D13*
X157734000Y-108712000D02*
X160528000Y-108712000D01*
X160528000Y-106934000D02*
X157734000Y-106934000D01*
X178562000Y-108712000D02*
X175768000Y-108712000D01*
X175768000Y-107188000D02*
X178562000Y-107188000D01*
D14*
X168402000Y-100711000D02*
X167236405Y-101876595D01*
X167236405Y-101876595D02*
X167236405Y-103566990D01*
D15*
G36*
X174810528Y-96885134D02*
X179114866Y-101189472D01*
X179290000Y-102069931D01*
X179290000Y-109290000D01*
X168710000Y-109290000D01*
X168710000Y-105000000D01*
X168655954Y-104728295D01*
X168502046Y-104497954D01*
X168271705Y-104344046D01*
X168000000Y-104290000D01*
X167835577Y-104290000D01*
X168028597Y-104097317D01*
X168171243Y-103753789D01*
X168171567Y-103381823D01*
X168029522Y-103038047D01*
X167996405Y-103004872D01*
X167996405Y-102191397D01*
X168541680Y-101646122D01*
X168587167Y-101646162D01*
X168930943Y-101504117D01*
X169194192Y-101241327D01*
X169336838Y-100897799D01*
X169337162Y-100525833D01*
X169195117Y-100182057D01*
X168932327Y-99918808D01*
X168588799Y-99776162D01*
X168216833Y-99775838D01*
X167873057Y-99917883D01*
X167609808Y-100180673D01*
X167467162Y-100524201D01*
X167467121Y-100571077D01*
X166699004Y-101339194D01*
X166534257Y-101585756D01*
X166476405Y-101876595D01*
X166476405Y-103004527D01*
X166444213Y-103036663D01*
X166301567Y-103380191D01*
X166301243Y-103752157D01*
X166443288Y-104095933D01*
X166637017Y-104290000D01*
X162000000Y-104290000D01*
X161728295Y-104344046D01*
X161497954Y-104497954D01*
X161344046Y-104728295D01*
X161290000Y-105000000D01*
X161290000Y-109290000D01*
X150710000Y-109290000D01*
X150710000Y-102069931D01*
X150898542Y-101122064D01*
X155122063Y-96898543D01*
X156069931Y-96710000D01*
X173930069Y-96710000D01*
X174810528Y-96885134D01*
X174810528Y-96885134D01*
G37*
X174810528Y-96885134D02*
X179114866Y-101189472D01*
X179290000Y-102069931D01*
X179290000Y-109290000D01*
X168710000Y-109290000D01*
X168710000Y-105000000D01*
X168655954Y-104728295D01*
X168502046Y-104497954D01*
X168271705Y-104344046D01*
X168000000Y-104290000D01*
X167835577Y-104290000D01*
X168028597Y-104097317D01*
X168171243Y-103753789D01*
X168171567Y-103381823D01*
X168029522Y-103038047D01*
X167996405Y-103004872D01*
X167996405Y-102191397D01*
X168541680Y-101646122D01*
X168587167Y-101646162D01*
X168930943Y-101504117D01*
X169194192Y-101241327D01*
X169336838Y-100897799D01*
X169337162Y-100525833D01*
X169195117Y-100182057D01*
X168932327Y-99918808D01*
X168588799Y-99776162D01*
X168216833Y-99775838D01*
X167873057Y-99917883D01*
X167609808Y-100180673D01*
X167467162Y-100524201D01*
X167467121Y-100571077D01*
X166699004Y-101339194D01*
X166534257Y-101585756D01*
X166476405Y-101876595D01*
X166476405Y-103004527D01*
X166444213Y-103036663D01*
X166301567Y-103380191D01*
X166301243Y-103752157D01*
X166443288Y-104095933D01*
X166637017Y-104290000D01*
X162000000Y-104290000D01*
X161728295Y-104344046D01*
X161497954Y-104497954D01*
X161344046Y-104728295D01*
X161290000Y-105000000D01*
X161290000Y-109290000D01*
X150710000Y-109290000D01*
X150710000Y-102069931D01*
X150898542Y-101122064D01*
X155122063Y-96898543D01*
X156069931Y-96710000D01*
X173930069Y-96710000D01*
X174810528Y-96885134D01*
M02*
