G04 #@! TF.FileFunction,Copper,L2,Bot,Signal*
%FSLAX46Y46*%
G04 Gerber Fmt 4.6, Leading zero omitted, Abs format (unit mm)*
G04 Created by KiCad (PCBNEW 4.0.0-rc2-stable) date 12/02/15 20:29:02*
%MOMM*%
G01*
G04 APERTURE LIST*
%ADD10C,0.100000*%
%ADD11C,0.600000*%
%ADD12C,0.500000*%
%ADD13C,0.250000*%
%ADD14C,0.254000*%
G04 APERTURE END LIST*
D10*
D11*
X161544000Y-86868000D03*
X176022000Y-86868000D03*
X173736000Y-86868000D03*
X159258000Y-86868000D03*
X174672000Y-81534000D03*
X177372000Y-83820000D03*
X175006000Y-87884000D03*
X160274000Y-87884000D03*
X162814000Y-84054000D03*
X172212000Y-80010000D03*
X166624000Y-84328000D03*
X165354000Y-83058000D03*
X165862000Y-80010000D03*
X169926000Y-83058000D03*
X169926000Y-85090000D03*
D12*
X175006000Y-87884000D02*
X175006000Y-86186000D01*
X175086000Y-81534000D02*
X177372000Y-83820000D01*
X175086000Y-81534000D02*
X174672000Y-81534000D01*
X173148000Y-80010000D02*
X172212000Y-80010000D01*
X173148000Y-80010000D02*
X174672000Y-81534000D01*
X175006000Y-86186000D02*
X177372000Y-83820000D01*
X162814000Y-84054000D02*
X162814000Y-84074000D01*
X162814000Y-84074000D02*
X160274000Y-86614000D01*
X160274000Y-86614000D02*
X160274000Y-87884000D01*
X166624000Y-84328000D02*
X163088000Y-84328000D01*
X163088000Y-84328000D02*
X162814000Y-84054000D01*
X166624000Y-84328000D02*
X166878000Y-84328000D01*
X171196000Y-80010000D02*
X172212000Y-80010000D01*
X166878000Y-84328000D02*
X171196000Y-80010000D01*
D13*
X165862000Y-80010000D02*
X165354000Y-80518000D01*
X165354000Y-80518000D02*
X165354000Y-83058000D01*
X169926000Y-83058000D02*
X169926000Y-85090000D01*
D14*
G36*
X179432387Y-76995993D02*
X182084006Y-79647612D01*
X182170000Y-80079931D01*
X182170000Y-89460000D01*
X173430000Y-89460000D01*
X173430000Y-86360000D01*
X173375954Y-86088295D01*
X173222046Y-85857954D01*
X172991705Y-85704046D01*
X172720000Y-85650000D01*
X170688467Y-85650000D01*
X170718192Y-85620327D01*
X170860838Y-85276799D01*
X170861162Y-84904833D01*
X170719117Y-84561057D01*
X170686000Y-84527882D01*
X170686000Y-83620463D01*
X170718192Y-83588327D01*
X170860838Y-83244799D01*
X170861162Y-82872833D01*
X170719117Y-82529057D01*
X170456327Y-82265808D01*
X170112799Y-82123162D01*
X169740833Y-82122838D01*
X169397057Y-82264883D01*
X169133808Y-82527673D01*
X168991162Y-82871201D01*
X168990838Y-83243167D01*
X169132883Y-83586943D01*
X169166000Y-83620118D01*
X169166000Y-84527537D01*
X169133808Y-84559673D01*
X168991162Y-84903201D01*
X168990838Y-85275167D01*
X169132883Y-85618943D01*
X169163886Y-85650000D01*
X162560000Y-85650000D01*
X162288295Y-85704046D01*
X162057954Y-85857954D01*
X161904046Y-86088295D01*
X161850000Y-86360000D01*
X161850000Y-89460000D01*
X153110000Y-89460000D01*
X153110000Y-83243167D01*
X164418838Y-83243167D01*
X164560883Y-83586943D01*
X164823673Y-83850192D01*
X165167201Y-83992838D01*
X165539167Y-83993162D01*
X165882943Y-83851117D01*
X166146192Y-83588327D01*
X166288838Y-83244799D01*
X166289162Y-82872833D01*
X166147117Y-82529057D01*
X166114000Y-82495882D01*
X166114000Y-80917547D01*
X166390943Y-80803117D01*
X166654192Y-80540327D01*
X166796838Y-80196799D01*
X166797162Y-79824833D01*
X166655117Y-79481057D01*
X166392327Y-79217808D01*
X166048799Y-79075162D01*
X165676833Y-79074838D01*
X165333057Y-79216883D01*
X165069808Y-79479673D01*
X164927162Y-79823201D01*
X164927121Y-79870077D01*
X164816599Y-79980599D01*
X164651852Y-80227161D01*
X164594000Y-80518000D01*
X164594000Y-82495537D01*
X164561808Y-82527673D01*
X164419162Y-82871201D01*
X164418838Y-83243167D01*
X153110000Y-83243167D01*
X153110000Y-80079931D01*
X153195993Y-79647613D01*
X155847612Y-76995994D01*
X156279931Y-76910000D01*
X179000069Y-76910000D01*
X179432387Y-76995993D01*
X179432387Y-76995993D01*
G37*
X179432387Y-76995993D02*
X182084006Y-79647612D01*
X182170000Y-80079931D01*
X182170000Y-89460000D01*
X173430000Y-89460000D01*
X173430000Y-86360000D01*
X173375954Y-86088295D01*
X173222046Y-85857954D01*
X172991705Y-85704046D01*
X172720000Y-85650000D01*
X170688467Y-85650000D01*
X170718192Y-85620327D01*
X170860838Y-85276799D01*
X170861162Y-84904833D01*
X170719117Y-84561057D01*
X170686000Y-84527882D01*
X170686000Y-83620463D01*
X170718192Y-83588327D01*
X170860838Y-83244799D01*
X170861162Y-82872833D01*
X170719117Y-82529057D01*
X170456327Y-82265808D01*
X170112799Y-82123162D01*
X169740833Y-82122838D01*
X169397057Y-82264883D01*
X169133808Y-82527673D01*
X168991162Y-82871201D01*
X168990838Y-83243167D01*
X169132883Y-83586943D01*
X169166000Y-83620118D01*
X169166000Y-84527537D01*
X169133808Y-84559673D01*
X168991162Y-84903201D01*
X168990838Y-85275167D01*
X169132883Y-85618943D01*
X169163886Y-85650000D01*
X162560000Y-85650000D01*
X162288295Y-85704046D01*
X162057954Y-85857954D01*
X161904046Y-86088295D01*
X161850000Y-86360000D01*
X161850000Y-89460000D01*
X153110000Y-89460000D01*
X153110000Y-83243167D01*
X164418838Y-83243167D01*
X164560883Y-83586943D01*
X164823673Y-83850192D01*
X165167201Y-83992838D01*
X165539167Y-83993162D01*
X165882943Y-83851117D01*
X166146192Y-83588327D01*
X166288838Y-83244799D01*
X166289162Y-82872833D01*
X166147117Y-82529057D01*
X166114000Y-82495882D01*
X166114000Y-80917547D01*
X166390943Y-80803117D01*
X166654192Y-80540327D01*
X166796838Y-80196799D01*
X166797162Y-79824833D01*
X166655117Y-79481057D01*
X166392327Y-79217808D01*
X166048799Y-79075162D01*
X165676833Y-79074838D01*
X165333057Y-79216883D01*
X165069808Y-79479673D01*
X164927162Y-79823201D01*
X164927121Y-79870077D01*
X164816599Y-79980599D01*
X164651852Y-80227161D01*
X164594000Y-80518000D01*
X164594000Y-82495537D01*
X164561808Y-82527673D01*
X164419162Y-82871201D01*
X164418838Y-83243167D01*
X153110000Y-83243167D01*
X153110000Y-80079931D01*
X153195993Y-79647613D01*
X155847612Y-76995994D01*
X156279931Y-76910000D01*
X179000069Y-76910000D01*
X179432387Y-76995993D01*
M02*
