G04 #@! TF.FileFunction,Copper,L1,Top,Signal*
%FSLAX46Y46*%
G04 Gerber Fmt 4.6, Leading zero omitted, Abs format (unit mm)*
G04 Created by KiCad (PCBNEW 4.0.0-rc2-stable) date 12/02/15 20:29:02*
%MOMM*%
G01*
G04 APERTURE LIST*
%ADD10C,0.100000*%
%ADD11R,1.250000X1.500000*%
%ADD12R,0.635000X1.270000*%
%ADD13R,2.670000X2.540000*%
%ADD14R,1.500000X1.300000*%
%ADD15R,1.060000X0.650000*%
%ADD16C,0.600000*%
%ADD17C,0.250000*%
%ADD18C,0.500000*%
%ADD19C,0.254000*%
G04 APERTURE END LIST*
D10*
D11*
X162814000Y-81554000D03*
X162814000Y-84054000D03*
X172212000Y-82530000D03*
X172212000Y-80030000D03*
D12*
X165925500Y-78486000D03*
D13*
X168276500Y-78486000D03*
D11*
X156464000Y-81046000D03*
X156464000Y-83546000D03*
D14*
X174672000Y-83820000D03*
X177372000Y-83820000D03*
X177372000Y-81534000D03*
X174672000Y-81534000D03*
D15*
X166540000Y-83378000D03*
X166540000Y-84328000D03*
X166540000Y-85278000D03*
X168740000Y-85278000D03*
X168740000Y-83378000D03*
X168740000Y-84328000D03*
D14*
X166290000Y-81534000D03*
X168990000Y-81534000D03*
D16*
X161544000Y-86868000D03*
X176022000Y-86868000D03*
X173736000Y-86868000D03*
X159258000Y-86868000D03*
X174672000Y-81534000D03*
X177372000Y-83820000D03*
X175006000Y-87884000D03*
X160274000Y-87884000D03*
X162814000Y-84054000D03*
X172212000Y-80010000D03*
X166624000Y-84328000D03*
X165354000Y-83058000D03*
X165862000Y-80010000D03*
X169926000Y-83058000D03*
X169926000Y-85090000D03*
D17*
X172212000Y-80010000D02*
X172212000Y-80030000D01*
X166540000Y-84328000D02*
X166624000Y-84328000D01*
D18*
X156464000Y-81046000D02*
X162306000Y-81046000D01*
X162306000Y-81046000D02*
X162814000Y-81554000D01*
X156464000Y-81046000D02*
X155174000Y-81554000D01*
X155174000Y-81554000D02*
X154432000Y-82296000D01*
X154432000Y-82296000D02*
X154432000Y-87630000D01*
D17*
X166290000Y-81534000D02*
X166370000Y-81534000D01*
D18*
X166370000Y-81534000D02*
X168214000Y-83378000D01*
D17*
X168214000Y-83378000D02*
X168740000Y-83378000D01*
D18*
X162814000Y-81554000D02*
X166270000Y-81554000D01*
D17*
X166270000Y-81554000D02*
X166290000Y-81534000D01*
D18*
X177372000Y-81534000D02*
X178562000Y-81534000D01*
X180594000Y-83566000D02*
X180594000Y-87630000D01*
X178562000Y-81534000D02*
X180594000Y-83566000D01*
X168276500Y-78486000D02*
X174324000Y-78486000D01*
X174324000Y-78486000D02*
X177372000Y-81534000D01*
X172212000Y-82530000D02*
X172212000Y-82421500D01*
X172212000Y-82421500D02*
X168276500Y-78486000D01*
X168740000Y-84328000D02*
X170414000Y-84328000D01*
X170414000Y-84328000D02*
X172212000Y-82530000D01*
D17*
X165354000Y-83058000D02*
X164338000Y-83058000D01*
X157206000Y-82804000D02*
X156464000Y-83546000D01*
X164084000Y-82804000D02*
X157206000Y-82804000D01*
X164338000Y-83058000D02*
X164084000Y-82804000D01*
X165925500Y-79946500D02*
X165862000Y-80010000D01*
X165925500Y-78486000D02*
X165925500Y-79946500D01*
X165674000Y-83378000D02*
X166540000Y-83378000D01*
X165354000Y-83058000D02*
X165674000Y-83378000D01*
X174672000Y-83820000D02*
X173990000Y-83820000D01*
X173990000Y-83820000D02*
X171704000Y-86106000D01*
X171704000Y-86106000D02*
X167368000Y-86106000D01*
X167368000Y-86106000D02*
X166540000Y-85278000D01*
X168990000Y-81534000D02*
X168990000Y-82122000D01*
X168990000Y-82122000D02*
X169926000Y-83058000D01*
X169926000Y-85090000D02*
X169738000Y-85278000D01*
X169738000Y-85278000D02*
X168740000Y-85278000D01*
D19*
G36*
X176403000Y-89408000D02*
X173482000Y-89408000D01*
X173482000Y-86487000D01*
X176403000Y-86487000D01*
X176403000Y-89408000D01*
X176403000Y-89408000D01*
G37*
X176403000Y-89408000D02*
X173482000Y-89408000D01*
X173482000Y-86487000D01*
X176403000Y-86487000D01*
X176403000Y-89408000D01*
G36*
X182118000Y-89408000D02*
X179197000Y-89408000D01*
X179197000Y-86487000D01*
X182118000Y-86487000D01*
X182118000Y-89408000D01*
X182118000Y-89408000D01*
G37*
X182118000Y-89408000D02*
X179197000Y-89408000D01*
X179197000Y-86487000D01*
X182118000Y-86487000D01*
X182118000Y-89408000D01*
G36*
X156083000Y-89408000D02*
X153162000Y-89408000D01*
X153162000Y-86487000D01*
X156083000Y-86487000D01*
X156083000Y-89408000D01*
X156083000Y-89408000D01*
G37*
X156083000Y-89408000D02*
X153162000Y-89408000D01*
X153162000Y-86487000D01*
X156083000Y-86487000D01*
X156083000Y-89408000D01*
G36*
X161798000Y-89408000D02*
X158877000Y-89408000D01*
X158877000Y-86487000D01*
X161798000Y-86487000D01*
X161798000Y-89408000D01*
X161798000Y-89408000D01*
G37*
X161798000Y-89408000D02*
X158877000Y-89408000D01*
X158877000Y-86487000D01*
X161798000Y-86487000D01*
X161798000Y-89408000D01*
M02*
