G04 #@! TF.FileFunction,Soldermask,Top*
%FSLAX46Y46*%
G04 Gerber Fmt 4.6, Leading zero omitted, Abs format (unit mm)*
G04 Created by KiCad (PCBNEW 4.0.0-rc2-stable) date 12/02/15 20:29:02*
%MOMM*%
G01*
G04 APERTURE LIST*
%ADD10C,0.100000*%
%ADD11R,1.450000X1.700000*%
%ADD12R,0.835000X1.470000*%
%ADD13R,2.870000X2.740000*%
%ADD14R,1.700000X1.500000*%
%ADD15R,1.260000X0.850000*%
%ADD16C,0.254000*%
G04 APERTURE END LIST*
D10*
D11*
X162814000Y-81554000D03*
X162814000Y-84054000D03*
X172212000Y-82530000D03*
X172212000Y-80030000D03*
D12*
X165925500Y-78486000D03*
D13*
X168276500Y-78486000D03*
D11*
X156464000Y-81046000D03*
X156464000Y-83546000D03*
D14*
X174672000Y-83820000D03*
X177372000Y-83820000D03*
X177372000Y-81534000D03*
X174672000Y-81534000D03*
D15*
X166540000Y-83378000D03*
X166540000Y-84328000D03*
X166540000Y-85278000D03*
X168740000Y-85278000D03*
X168740000Y-83378000D03*
X168740000Y-84328000D03*
D14*
X166290000Y-81534000D03*
X168990000Y-81534000D03*
D16*
G36*
X161823400Y-89433400D02*
X158877000Y-89433400D01*
X158877000Y-86487000D01*
X161823400Y-86487000D01*
X161823400Y-89433400D01*
X161823400Y-89433400D01*
G37*
X161823400Y-89433400D02*
X158877000Y-89433400D01*
X158877000Y-86487000D01*
X161823400Y-86487000D01*
X161823400Y-89433400D01*
G36*
X156083000Y-89433400D02*
X153136600Y-89433400D01*
X153136600Y-86487000D01*
X156083000Y-86487000D01*
X156083000Y-89433400D01*
X156083000Y-89433400D01*
G37*
X156083000Y-89433400D02*
X153136600Y-89433400D01*
X153136600Y-86487000D01*
X156083000Y-86487000D01*
X156083000Y-89433400D01*
G36*
X176403000Y-89433400D02*
X173456600Y-89433400D01*
X173456600Y-86487000D01*
X176403000Y-86487000D01*
X176403000Y-89433400D01*
X176403000Y-89433400D01*
G37*
X176403000Y-89433400D02*
X173456600Y-89433400D01*
X173456600Y-86487000D01*
X176403000Y-86487000D01*
X176403000Y-89433400D01*
G36*
X182143400Y-89433400D02*
X179197000Y-89433400D01*
X179197000Y-86487000D01*
X182143400Y-86487000D01*
X182143400Y-89433400D01*
X182143400Y-89433400D01*
G37*
X182143400Y-89433400D02*
X179197000Y-89433400D01*
X179197000Y-86487000D01*
X182143400Y-86487000D01*
X182143400Y-89433400D01*
M02*
