G04 #@! TF.FileFunction,Legend,Top*
%FSLAX46Y46*%
G04 Gerber Fmt 4.6, Leading zero omitted, Abs format (unit mm)*
G04 Created by KiCad (PCBNEW 4.0.2-stable) date 3/12/2016 11:36:09 PM*
%MOMM*%
G01*
G04 APERTURE LIST*
%ADD10C,0.100000*%
%ADD11C,0.300000*%
%ADD12C,0.150000*%
G04 APERTURE END LIST*
D10*
D11*
X178244572Y-108057143D02*
X179387429Y-108057143D01*
X178244572Y-104755143D02*
X179387429Y-104755143D01*
X178816000Y-105326571D02*
X178816000Y-104183714D01*
X175792000Y-101286571D02*
X176077714Y-101286571D01*
X176220572Y-101358000D01*
X176363429Y-101500857D01*
X176434857Y-101786571D01*
X176434857Y-102286571D01*
X176363429Y-102572286D01*
X176220572Y-102715143D01*
X176077714Y-102786571D01*
X175792000Y-102786571D01*
X175649143Y-102715143D01*
X175506286Y-102572286D01*
X175434857Y-102286571D01*
X175434857Y-101786571D01*
X175506286Y-101500857D01*
X175649143Y-101358000D01*
X175792000Y-101286571D01*
X177077715Y-101286571D02*
X177077715Y-102500857D01*
X177149143Y-102643714D01*
X177220572Y-102715143D01*
X177363429Y-102786571D01*
X177649143Y-102786571D01*
X177792001Y-102715143D01*
X177863429Y-102643714D01*
X177934858Y-102500857D01*
X177934858Y-101286571D01*
X178434858Y-101286571D02*
X179292001Y-101286571D01*
X178863430Y-102786571D02*
X178863430Y-101286571D01*
X159488286Y-105834571D02*
X159488286Y-104334571D01*
X160202572Y-105834571D02*
X160202572Y-104334571D01*
X161059715Y-105834571D01*
X161059715Y-104334571D01*
X159702572Y-108057143D02*
X160845429Y-108057143D01*
X159702572Y-101199143D02*
X160845429Y-101199143D01*
X160274000Y-101770571D02*
X160274000Y-100627714D01*
D12*
X149297000Y-104937000D02*
X147297000Y-104937000D01*
X147297000Y-104937000D02*
X147297000Y-103437000D01*
X147297000Y-103437000D02*
X149297000Y-103437000D01*
X149297000Y-105537000D02*
X149297000Y-110037000D01*
X149297000Y-110037000D02*
X152897000Y-110037000D01*
X152897000Y-110037000D02*
X152897000Y-101037000D01*
X152897000Y-101037000D02*
X151097000Y-101037000D01*
X149297000Y-105537000D02*
X149297000Y-101037000D01*
X151097000Y-101037000D02*
X149297000Y-101037000D01*
X151497000Y-108937000D02*
G75*
G03X151497000Y-108937000I-450000J0D01*
G01*
X151497000Y-102137000D02*
G75*
G03X151497000Y-102137000I-450000J0D01*
G01*
X170743500Y-99937200D02*
X169743500Y-99937200D01*
X169743500Y-101637200D02*
X170743500Y-101637200D01*
X170743500Y-97765500D02*
X169743500Y-97765500D01*
X169743500Y-99465500D02*
X170743500Y-99465500D01*
X160266000Y-98083000D02*
X159266000Y-98083000D01*
X159266000Y-99783000D02*
X160266000Y-99783000D01*
X171612000Y-106757500D02*
X172812000Y-106757500D01*
X172812000Y-108507500D02*
X171612000Y-108507500D01*
X171612000Y-104217500D02*
X172812000Y-104217500D01*
X172812000Y-105967500D02*
X171612000Y-105967500D01*
X154022500Y-98058000D02*
X155222500Y-98058000D01*
X155222500Y-99808000D02*
X154022500Y-99808000D01*
X164820500Y-100344500D02*
G75*
G03X164820500Y-100344500I-100000J0D01*
G01*
X165370500Y-100594500D02*
X164870500Y-100594500D01*
X165370500Y-103494500D02*
X165370500Y-100594500D01*
X164870500Y-103494500D02*
X165370500Y-103494500D01*
X164870500Y-100594500D02*
X164870500Y-103494500D01*
X150304667Y-111910762D02*
X150447524Y-111958381D01*
X150685620Y-111958381D01*
X150780858Y-111910762D01*
X150828477Y-111863143D01*
X150876096Y-111767905D01*
X150876096Y-111672667D01*
X150828477Y-111577429D01*
X150780858Y-111529810D01*
X150685620Y-111482190D01*
X150495143Y-111434571D01*
X150399905Y-111386952D01*
X150352286Y-111339333D01*
X150304667Y-111244095D01*
X150304667Y-111148857D01*
X150352286Y-111053619D01*
X150399905Y-111006000D01*
X150495143Y-110958381D01*
X150733239Y-110958381D01*
X150876096Y-111006000D01*
X151209429Y-110958381D02*
X151447524Y-111958381D01*
X151638001Y-111244095D01*
X151828477Y-111958381D01*
X152066572Y-110958381D01*
X152971334Y-111958381D02*
X152399905Y-111958381D01*
X152685619Y-111958381D02*
X152685619Y-110958381D01*
X152590381Y-111101238D01*
X152495143Y-111196476D01*
X152399905Y-111244095D01*
X173569334Y-101144343D02*
X173521715Y-101191962D01*
X173378858Y-101239581D01*
X173283620Y-101239581D01*
X173140762Y-101191962D01*
X173045524Y-101096724D01*
X172997905Y-101001486D01*
X172950286Y-100811010D01*
X172950286Y-100668152D01*
X172997905Y-100477676D01*
X173045524Y-100382438D01*
X173140762Y-100287200D01*
X173283620Y-100239581D01*
X173378858Y-100239581D01*
X173521715Y-100287200D01*
X173569334Y-100334819D01*
X174521715Y-101239581D02*
X173950286Y-101239581D01*
X174236000Y-101239581D02*
X174236000Y-100239581D01*
X174140762Y-100382438D01*
X174045524Y-100477676D01*
X173950286Y-100525295D01*
X173569334Y-98909143D02*
X173521715Y-98956762D01*
X173378858Y-99004381D01*
X173283620Y-99004381D01*
X173140762Y-98956762D01*
X173045524Y-98861524D01*
X172997905Y-98766286D01*
X172950286Y-98575810D01*
X172950286Y-98432952D01*
X172997905Y-98242476D01*
X173045524Y-98147238D01*
X173140762Y-98052000D01*
X173283620Y-98004381D01*
X173378858Y-98004381D01*
X173521715Y-98052000D01*
X173569334Y-98099619D01*
X173950286Y-98099619D02*
X173997905Y-98052000D01*
X174093143Y-98004381D01*
X174331239Y-98004381D01*
X174426477Y-98052000D01*
X174474096Y-98099619D01*
X174521715Y-98194857D01*
X174521715Y-98290095D01*
X174474096Y-98432952D01*
X173902667Y-99004381D01*
X174521715Y-99004381D01*
X167663905Y-97226381D02*
X167663905Y-96226381D01*
X167902000Y-96226381D01*
X168044858Y-96274000D01*
X168140096Y-96369238D01*
X168187715Y-96464476D01*
X168235334Y-96654952D01*
X168235334Y-96797810D01*
X168187715Y-96988286D01*
X168140096Y-97083524D01*
X168044858Y-97178762D01*
X167902000Y-97226381D01*
X167663905Y-97226381D01*
X169187715Y-97226381D02*
X168616286Y-97226381D01*
X168902000Y-97226381D02*
X168902000Y-96226381D01*
X168806762Y-96369238D01*
X168711524Y-96464476D01*
X168616286Y-96512095D01*
X159599334Y-97480381D02*
X159123143Y-97480381D01*
X159123143Y-96480381D01*
X160456477Y-97480381D02*
X159885048Y-97480381D01*
X160170762Y-97480381D02*
X160170762Y-96480381D01*
X160075524Y-96623238D01*
X159980286Y-96718476D01*
X159885048Y-96766095D01*
X168743334Y-108148381D02*
X168410000Y-107672190D01*
X168171905Y-108148381D02*
X168171905Y-107148381D01*
X168552858Y-107148381D01*
X168648096Y-107196000D01*
X168695715Y-107243619D01*
X168743334Y-107338857D01*
X168743334Y-107481714D01*
X168695715Y-107576952D01*
X168648096Y-107624571D01*
X168552858Y-107672190D01*
X168171905Y-107672190D01*
X169695715Y-108148381D02*
X169124286Y-108148381D01*
X169410000Y-108148381D02*
X169410000Y-107148381D01*
X169314762Y-107291238D01*
X169219524Y-107386476D01*
X169124286Y-107434095D01*
X168743334Y-105608381D02*
X168410000Y-105132190D01*
X168171905Y-105608381D02*
X168171905Y-104608381D01*
X168552858Y-104608381D01*
X168648096Y-104656000D01*
X168695715Y-104703619D01*
X168743334Y-104798857D01*
X168743334Y-104941714D01*
X168695715Y-105036952D01*
X168648096Y-105084571D01*
X168552858Y-105132190D01*
X168171905Y-105132190D01*
X169124286Y-104703619D02*
X169171905Y-104656000D01*
X169267143Y-104608381D01*
X169505239Y-104608381D01*
X169600477Y-104656000D01*
X169648096Y-104703619D01*
X169695715Y-104798857D01*
X169695715Y-104894095D01*
X169648096Y-105036952D01*
X169076667Y-105608381D01*
X169695715Y-105608381D01*
X154519334Y-97480381D02*
X154186000Y-97004190D01*
X153947905Y-97480381D02*
X153947905Y-96480381D01*
X154328858Y-96480381D01*
X154424096Y-96528000D01*
X154471715Y-96575619D01*
X154519334Y-96670857D01*
X154519334Y-96813714D01*
X154471715Y-96908952D01*
X154424096Y-96956571D01*
X154328858Y-97004190D01*
X153947905Y-97004190D01*
X154852667Y-96480381D02*
X155471715Y-96480381D01*
X155138381Y-96861333D01*
X155281239Y-96861333D01*
X155376477Y-96908952D01*
X155424096Y-96956571D01*
X155471715Y-97051810D01*
X155471715Y-97289905D01*
X155424096Y-97385143D01*
X155376477Y-97432762D01*
X155281239Y-97480381D01*
X154995524Y-97480381D01*
X154900286Y-97432762D01*
X154852667Y-97385143D01*
X164358595Y-103846381D02*
X164358595Y-104655905D01*
X164406214Y-104751143D01*
X164453833Y-104798762D01*
X164549071Y-104846381D01*
X164739548Y-104846381D01*
X164834786Y-104798762D01*
X164882405Y-104751143D01*
X164930024Y-104655905D01*
X164930024Y-103846381D01*
X165930024Y-104846381D02*
X165358595Y-104846381D01*
X165644309Y-104846381D02*
X165644309Y-103846381D01*
X165549071Y-103989238D01*
X165453833Y-104084476D01*
X165358595Y-104132095D01*
M02*
