G04 #@! TF.FileFunction,Copper,L1,Top,Signal*
%FSLAX46Y46*%
G04 Gerber Fmt 4.6, Leading zero omitted, Abs format (unit mm)*
G04 Created by KiCad (PCBNEW 4.0.2-stable) date 3/12/2016 11:36:09 PM*
%MOMM*%
G01*
G04 APERTURE LIST*
%ADD10C,0.100000*%
%ADD11R,2.500000X1.200000*%
%ADD12R,1.500000X1.250000*%
%ADD13R,2.670000X2.540000*%
%ADD14R,0.762000X1.270000*%
%ADD15R,1.500000X1.300000*%
%ADD16R,1.060000X0.650000*%
%ADD17C,0.600000*%
%ADD18C,0.500000*%
%ADD19C,0.254000*%
%ADD20C,0.250000*%
%ADD21C,0.400000*%
%ADD22C,0.152400*%
%ADD23C,0.025400*%
G04 APERTURE END LIST*
D10*
D11*
X153797000Y-105537000D03*
X153797000Y-103037000D03*
X153797000Y-108037000D03*
D12*
X168993500Y-100787200D03*
X171493500Y-100787200D03*
X168993500Y-98615500D03*
X171493500Y-98615500D03*
D13*
X165800000Y-97980500D03*
D14*
X163449000Y-97980500D03*
D12*
X158516000Y-98933000D03*
X161016000Y-98933000D03*
D15*
X173562000Y-107632500D03*
X170862000Y-107632500D03*
X173562000Y-105092500D03*
X170862000Y-105092500D03*
X155972500Y-98933000D03*
X153272500Y-98933000D03*
D16*
X164020500Y-101094500D03*
X164020500Y-102044500D03*
X164020500Y-102994500D03*
X166220500Y-102994500D03*
X166220500Y-101094500D03*
X166220500Y-102044500D03*
D17*
X155714000Y-108204000D03*
X174812000Y-107632500D03*
X171493500Y-99720400D03*
X162814000Y-102108000D03*
X162814000Y-103124000D03*
X165222482Y-103001518D03*
D18*
X155714000Y-108204000D02*
X157480000Y-108204000D01*
X155547000Y-108037000D02*
X155714000Y-108204000D01*
X153797000Y-108037000D02*
X155547000Y-108037000D01*
X174812000Y-107632500D02*
X175383500Y-108204000D01*
X173562000Y-107632500D02*
X174812000Y-107632500D01*
X175383500Y-108204000D02*
X176276000Y-108204000D01*
X171493500Y-101092000D02*
X171493500Y-99822000D01*
X171493500Y-98615500D02*
X171493500Y-99822000D01*
X164020500Y-102044500D02*
X162877500Y-102044500D01*
X162877500Y-102044500D02*
X162814000Y-102108000D01*
X153797000Y-108037000D02*
X153147000Y-108037000D01*
X157734000Y-101346000D02*
X157734000Y-101600000D01*
X157226000Y-100838000D02*
X157734000Y-101346000D01*
X157226000Y-98933000D02*
X158516000Y-98933000D01*
X155972500Y-98933000D02*
X157226000Y-98933000D01*
X157226000Y-98933000D02*
X157226000Y-100838000D01*
X158516000Y-98933000D02*
X158641000Y-98933000D01*
X158641000Y-98933000D02*
X159977500Y-100269500D01*
X159977500Y-100269500D02*
X165190500Y-100269500D01*
X165190500Y-100269500D02*
X166015500Y-101094500D01*
X166015500Y-101094500D02*
X166220500Y-101094500D01*
X168993500Y-101092000D02*
X166223000Y-101092000D01*
X166223000Y-101092000D02*
X166220500Y-101094500D01*
D19*
X176085500Y-105092500D02*
X176276000Y-104902000D01*
X173562000Y-105092500D02*
X176085500Y-105092500D01*
X173562000Y-105092500D02*
X173462000Y-105092500D01*
X173462000Y-105092500D02*
X170536501Y-102167001D01*
X170536501Y-102167001D02*
X170103501Y-102167001D01*
X168993500Y-98615500D02*
X169118500Y-98615500D01*
X169118500Y-98615500D02*
X170193501Y-99690501D01*
X170103501Y-102167001D02*
X167373001Y-102167001D01*
X170193501Y-99690501D02*
X170193501Y-102077001D01*
X170193501Y-102077001D02*
X170103501Y-102167001D01*
X167373001Y-102167001D02*
X167250500Y-102044500D01*
X167250500Y-102044500D02*
X166220500Y-102044500D01*
X168993500Y-98615500D02*
X166435000Y-98615500D01*
X166435000Y-98615500D02*
X165800000Y-97980500D01*
X161016000Y-98933000D02*
X162750500Y-98933000D01*
X162750500Y-98933000D02*
X163449000Y-98234500D01*
D20*
X163449000Y-98234500D02*
X163449000Y-97980500D01*
D19*
X159258000Y-103378000D02*
X156573002Y-103378000D01*
X156573002Y-103378000D02*
X154897499Y-101702497D01*
X159915999Y-97957999D02*
X160891000Y-98933000D01*
D20*
X154897499Y-101702497D02*
X154897499Y-98022999D01*
D19*
X154897499Y-98022999D02*
X154962499Y-97957999D01*
D20*
X154962499Y-97957999D02*
X159915999Y-97957999D01*
D19*
X161541500Y-101094500D02*
X159258000Y-103378000D01*
X164020500Y-101094500D02*
X161541500Y-101094500D01*
D20*
X160891000Y-98933000D02*
X161016000Y-98933000D01*
D21*
X170862000Y-105092500D02*
X170862000Y-107632500D01*
X169746000Y-104076500D02*
X165307500Y-104076500D01*
X165307500Y-104076500D02*
X164225500Y-102994500D01*
X164225500Y-102994500D02*
X164020500Y-102994500D01*
X170862000Y-105092500D02*
X170762000Y-105092500D01*
X170762000Y-105092500D02*
X169746000Y-104076500D01*
D19*
X165222482Y-103001518D02*
X166213482Y-103001518D01*
X160401000Y-105537000D02*
X162814000Y-103124000D01*
X153797000Y-105537000D02*
X160401000Y-105537000D01*
D20*
X166213482Y-103001518D02*
X166220500Y-102994500D01*
X166159500Y-102933500D02*
X166220500Y-102994500D01*
D19*
X153797000Y-103037000D02*
X153797000Y-99457500D01*
X153797000Y-99457500D02*
X153272500Y-98933000D01*
D22*
G36*
X159943800Y-98556010D02*
X159943800Y-99822000D01*
X159949803Y-99851646D01*
X159966868Y-99876621D01*
X159992305Y-99892989D01*
X160020000Y-99898200D01*
X169390412Y-99898200D01*
X169646600Y-100111690D01*
X169646600Y-101371400D01*
X164832111Y-101371400D01*
X164832111Y-100769500D01*
X164812852Y-100667146D01*
X164752361Y-100573141D01*
X164660062Y-100510076D01*
X164550500Y-100487889D01*
X163490500Y-100487889D01*
X163388146Y-100507148D01*
X163294141Y-100567639D01*
X163231076Y-100659938D01*
X163224725Y-100691300D01*
X161541500Y-100691300D01*
X161387202Y-100721992D01*
X161256395Y-100809394D01*
X159090990Y-102974800D01*
X156740013Y-102974800D01*
X155298699Y-101533487D01*
X155298699Y-98359199D01*
X159746989Y-98359199D01*
X159943800Y-98556010D01*
X159943800Y-98556010D01*
G37*
X159943800Y-98556010D02*
X159943800Y-99822000D01*
X159949803Y-99851646D01*
X159966868Y-99876621D01*
X159992305Y-99892989D01*
X160020000Y-99898200D01*
X169390412Y-99898200D01*
X169646600Y-100111690D01*
X169646600Y-101371400D01*
X164832111Y-101371400D01*
X164832111Y-100769500D01*
X164812852Y-100667146D01*
X164752361Y-100573141D01*
X164660062Y-100510076D01*
X164550500Y-100487889D01*
X163490500Y-100487889D01*
X163388146Y-100507148D01*
X163294141Y-100567639D01*
X163231076Y-100659938D01*
X163224725Y-100691300D01*
X161541500Y-100691300D01*
X161387202Y-100721992D01*
X161256395Y-100809394D01*
X159090990Y-102974800D01*
X156740013Y-102974800D01*
X155298699Y-101533487D01*
X155298699Y-98359199D01*
X159746989Y-98359199D01*
X159943800Y-98556010D01*
D23*
G36*
X177787300Y-109461300D02*
X175272700Y-109461300D01*
X175272700Y-106946700D01*
X177787300Y-106946700D01*
X177787300Y-109461300D01*
X177787300Y-109461300D01*
G37*
X177787300Y-109461300D02*
X175272700Y-109461300D01*
X175272700Y-106946700D01*
X177787300Y-106946700D01*
X177787300Y-109461300D01*
D22*
G36*
X170380118Y-98097882D02*
X170399922Y-98112155D01*
X170458627Y-98141508D01*
X170458627Y-99240500D01*
X170459400Y-99244608D01*
X170459400Y-100158383D01*
X170458627Y-100162200D01*
X170458627Y-101412200D01*
X170459400Y-101416308D01*
X170459400Y-101904800D01*
X170465403Y-101934446D01*
X170478647Y-101955425D01*
X170885047Y-102412625D01*
X170909230Y-102430794D01*
X170942000Y-102438200D01*
X177723800Y-102438200D01*
X177723800Y-106095800D01*
X172483988Y-106095800D01*
X172034200Y-105870906D01*
X172034200Y-104140000D01*
X172028197Y-104110354D01*
X172011132Y-104085379D01*
X171984756Y-104068652D01*
X169952756Y-103306652D01*
X169926000Y-103301800D01*
X167035373Y-103301800D01*
X167035373Y-102669500D01*
X167015891Y-102565961D01*
X166954699Y-102470866D01*
X166861332Y-102407071D01*
X166750500Y-102384627D01*
X165690500Y-102384627D01*
X165586961Y-102404109D01*
X165491866Y-102465301D01*
X165480843Y-102481434D01*
X165338237Y-102422219D01*
X165107738Y-102422018D01*
X164894707Y-102510040D01*
X164871400Y-102533306D01*
X164871400Y-101777800D01*
X170027600Y-101777800D01*
X170057246Y-101771797D01*
X170082221Y-101754732D01*
X170098589Y-101729295D01*
X170103800Y-101701600D01*
X170103800Y-100025200D01*
X170097797Y-99995554D01*
X170078575Y-99968561D01*
X169570575Y-99511361D01*
X169544523Y-99495991D01*
X169519600Y-99491800D01*
X167657988Y-99491800D01*
X167166078Y-99245845D01*
X167132000Y-99237800D01*
X164414200Y-99237800D01*
X164414200Y-96596200D01*
X168878436Y-96596200D01*
X170380118Y-98097882D01*
X170380118Y-98097882D01*
G37*
X170380118Y-98097882D02*
X170399922Y-98112155D01*
X170458627Y-98141508D01*
X170458627Y-99240500D01*
X170459400Y-99244608D01*
X170459400Y-100158383D01*
X170458627Y-100162200D01*
X170458627Y-101412200D01*
X170459400Y-101416308D01*
X170459400Y-101904800D01*
X170465403Y-101934446D01*
X170478647Y-101955425D01*
X170885047Y-102412625D01*
X170909230Y-102430794D01*
X170942000Y-102438200D01*
X177723800Y-102438200D01*
X177723800Y-106095800D01*
X172483988Y-106095800D01*
X172034200Y-105870906D01*
X172034200Y-104140000D01*
X172028197Y-104110354D01*
X172011132Y-104085379D01*
X171984756Y-104068652D01*
X169952756Y-103306652D01*
X169926000Y-103301800D01*
X167035373Y-103301800D01*
X167035373Y-102669500D01*
X167015891Y-102565961D01*
X166954699Y-102470866D01*
X166861332Y-102407071D01*
X166750500Y-102384627D01*
X165690500Y-102384627D01*
X165586961Y-102404109D01*
X165491866Y-102465301D01*
X165480843Y-102481434D01*
X165338237Y-102422219D01*
X165107738Y-102422018D01*
X164894707Y-102510040D01*
X164871400Y-102533306D01*
X164871400Y-101777800D01*
X170027600Y-101777800D01*
X170057246Y-101771797D01*
X170082221Y-101754732D01*
X170098589Y-101729295D01*
X170103800Y-101701600D01*
X170103800Y-100025200D01*
X170097797Y-99995554D01*
X170078575Y-99968561D01*
X169570575Y-99511361D01*
X169544523Y-99495991D01*
X169519600Y-99491800D01*
X167657988Y-99491800D01*
X167166078Y-99245845D01*
X167132000Y-99237800D01*
X164414200Y-99237800D01*
X164414200Y-96596200D01*
X168878436Y-96596200D01*
X170380118Y-98097882D01*
D23*
G36*
X158991300Y-109461300D02*
X156476700Y-109461300D01*
X156476700Y-106946700D01*
X158991300Y-106946700D01*
X158991300Y-109461300D01*
X158991300Y-109461300D01*
G37*
X158991300Y-109461300D02*
X156476700Y-109461300D01*
X156476700Y-106946700D01*
X158991300Y-106946700D01*
X158991300Y-109461300D01*
M02*
