G04 #@! TF.FileFunction,Soldermask,Top*
%FSLAX46Y46*%
G04 Gerber Fmt 4.6, Leading zero omitted, Abs format (unit mm)*
G04 Created by KiCad (PCBNEW 4.0.2-stable) date 3/12/2016 11:36:09 PM*
%MOMM*%
G01*
G04 APERTURE LIST*
%ADD10C,0.100000*%
%ADD11R,2.700000X1.400000*%
%ADD12C,1.100000*%
%ADD13R,1.700000X1.450000*%
%ADD14R,2.870000X2.740000*%
%ADD15R,0.962000X1.470000*%
%ADD16R,1.700000X1.500000*%
%ADD17R,1.260000X0.850000*%
%ADD18C,0.025400*%
G04 APERTURE END LIST*
D10*
D11*
X153797000Y-105537000D03*
X153797000Y-103037000D03*
X153797000Y-108037000D03*
D12*
X151047000Y-102137000D03*
X151047000Y-108937000D03*
D13*
X168993500Y-100787200D03*
X171493500Y-100787200D03*
X168993500Y-98615500D03*
X171493500Y-98615500D03*
D14*
X165800000Y-97980500D03*
D15*
X163449000Y-97980500D03*
D13*
X158516000Y-98933000D03*
X161016000Y-98933000D03*
D16*
X173562000Y-107632500D03*
X170862000Y-107632500D03*
X173562000Y-105092500D03*
X170862000Y-105092500D03*
X155972500Y-98933000D03*
X153272500Y-98933000D03*
D17*
X164020500Y-101094500D03*
X164020500Y-102044500D03*
X164020500Y-102994500D03*
X166220500Y-102994500D03*
X166220500Y-101094500D03*
X166220500Y-102044500D03*
D18*
G36*
X177787300Y-109461300D02*
X175272700Y-109461300D01*
X175272700Y-106946700D01*
X177787300Y-106946700D01*
X177787300Y-109461300D01*
X177787300Y-109461300D01*
G37*
X177787300Y-109461300D02*
X175272700Y-109461300D01*
X175272700Y-106946700D01*
X177787300Y-106946700D01*
X177787300Y-109461300D01*
G36*
X177787300Y-106159300D02*
X175272700Y-106159300D01*
X175272700Y-103644700D01*
X177787300Y-103644700D01*
X177787300Y-106159300D01*
X177787300Y-106159300D01*
G37*
X177787300Y-106159300D02*
X175272700Y-106159300D01*
X175272700Y-103644700D01*
X177787300Y-103644700D01*
X177787300Y-106159300D01*
G36*
X158991300Y-109461300D02*
X156476700Y-109461300D01*
X156476700Y-106946700D01*
X158991300Y-106946700D01*
X158991300Y-109461300D01*
X158991300Y-109461300D01*
G37*
X158991300Y-109461300D02*
X156476700Y-109461300D01*
X156476700Y-106946700D01*
X158991300Y-106946700D01*
X158991300Y-109461300D01*
G36*
X158991300Y-102603300D02*
X156476700Y-102603300D01*
X156476700Y-100088700D01*
X158991300Y-100088700D01*
X158991300Y-102603300D01*
X158991300Y-102603300D01*
G37*
X158991300Y-102603300D02*
X156476700Y-102603300D01*
X156476700Y-100088700D01*
X158991300Y-100088700D01*
X158991300Y-102603300D01*
M02*
